<svg id="Layer_1" data-name="Layer 1" xmlns="http://www.w3.org/2000/svg" viewBox="0 0 389.42 449.6"><defs><style>.cls-1{fill:#231f20;fill-rule:evenodd;}</style></defs><path class="cls-1" d="M143.48,224.13h0v-.07A.1.1,0,0,1,143.48,224.13Zm0-.07v.07h0A.1.1,0,0,0,143.44,224.06Zm0,0v.07h0A.1.1,0,0,0,143.44,224.06ZM291.68,258.3c0-14.14-3.86-24.66-11.47-31.25S261,217,246,217h-31v81.16h25.48A86.56,86.56,0,0,0,261,295.82a48.54,48.54,0,0,0,16.11-7,33.39,33.39,0,0,0,10.62-12.18C290.35,271.63,291.68,265.46,291.68,258.3ZM442,301.07a3.8,3.8,0,0,0-.14.74l0,0c-1.6,14.6-9,42.77-14.56,56.54v.12h0c-5.34,15.23-20.22,43.78-29.83,58.38v.1h-.1c-19.41,27.88-42.27,59.21-72.39,57.85a69.55,69.55,0,0,1-22.43-4.67l-.07,0c-14.41-5-25.76-13-46.53-14.21q-1-.06-2-.09c-1.24-.05-2.51-.06-3.81-.05s-2.66,0-3.94.05q-1,0-2,.09c-20.77,1.17-32.12,9.23-46.53,14.21l-.07,0a69.55,69.55,0,0,1-22.43,4.67c-30.12,1.36-53-30-72.39-57.85h-.1v-.1c-9.6-14.6-24.49-43.15-29.83-58.38h0v-.12c-5.56-13.77-13-41.94-14.56-56.54l0,0a4.63,4.63,0,0,0-.13-.74c-2-14.63-3.82-45-2-56.45v-1c1.34-18,10.39-46.4,17.93-58.6v.11h.12v-.11c13.81-24.53,35.27-43,60.46-51.68a106.68,106.68,0,0,1,35.18-6.52c29.95-2.52,60.9,16.64,80.25,19.92,19.35-3.29,50.31-22.44,80.24-19.92a106.68,106.68,0,0,1,35.18,6.52c25.19,8.66,46.65,27.15,60.46,51.68v.11H426v-.11c7.54,12.2,16.59,40.62,17.94,58.6v1C445.78,256,444,286.44,442,301.07ZM143.48,224.13a.1.1,0,0,0,0-.07v.07ZM347.68,421.7l-62-98.57a110.37,110.37,0,0,0,15.2-8.44,73.36,73.36,0,0,0,15.82-14.1,67,67,0,0,0,11.1-19.31A70,70,0,0,0,332,256.46a81,81,0,0,0-4.95-28.68A63.83,63.83,0,0,0,312.52,205a66.24,66.24,0,0,0-23.91-14.93c-9.45-3.53-20.46-5.32-32.72-5.32h-78v237h37V330.75h34l54.87,90.95ZM332.5,25.2c-23.31.86-51.07,15.37-67.61,35a105.06,105.06,0,0,0-21,37.7,77.64,77.64,0,0,0-12.31-19.32C219.34,64,198.76,53.26,181.48,52.62c-2.18,20,6.25,39.91,17.82,54.35,10.63,13.26,27,23,44.09,24.18,24.77,1.67,50-13.83,65.08-32.65C324.07,79,335.44,52.22,332.5,25.2Z" transform="translate(-55.29 -25.2)"/></svg>